<svg width="24" height="24" viewBox="0 0 24 24" fill="none" xmlns="http://www.w3.org/2000/svg">
<path d="M16.4989 0C15.2194 0.0884995 13.7239 0.907495 12.8524 1.97399C12.0574 2.94148 11.4034 4.37847 11.6584 5.77497C13.0564 5.81847 14.5009 4.97997 15.3379 3.89548C16.1209 2.88598 16.7134 1.45799 16.4989 0Z" fill="#333333"/>
<path d="M21.5556 8.05167C20.3271 6.51118 18.6006 5.61719 16.9701 5.61719C14.8176 5.61719 13.9071 6.64768 12.4116 6.64768C10.8696 6.64768 9.69813 5.62019 7.83665 5.62019C6.00816 5.62019 4.06117 6.73768 2.82668 8.64867C1.09119 11.3397 1.38818 16.3991 4.20067 20.7086C5.20716 22.2506 6.55115 23.9846 8.30914 23.9996C9.87363 24.0146 10.3146 22.9961 12.4341 22.9856C14.5536 22.9736 14.9556 24.0131 16.5171 23.9966C18.2766 23.9831 19.6941 22.0616 20.7006 20.5196C21.4221 19.4141 21.6906 18.8576 22.2501 17.6096C18.1806 16.0601 17.5281 10.2732 21.5556 8.05167Z" fill="#333333"/>
</svg>
